<?xml version="1.0" encoding="UTF-8"?>
<svg version="1.1" xmlns="http://www.w3.org/2000/svg" width="256" height="256">
<path d="M0 0 C0.81042252 -0.00043808 1.62084503 -0.00087616 2.45582581 -0.00132751 C5.11809906 0.00075223 7.77973212 0.02404437 10.44189453 0.04760742 C12.29419613 0.05320628 14.14650218 0.05747501 15.99880981 0.06047058 C20.86177955 0.07189652 25.72447827 0.10134429 30.58734131 0.13458252 C35.55444676 0.16533199 40.52159623 0.17898633 45.48876953 0.1940918 C55.22586743 0.22621617 64.96276465 0.27738525 74.69970703 0.34057617 C75.68970703 2.32057617 75.68970703 2.32057617 76.69970703 4.34057617 C78.13831997 4.25311333 79.57568212 4.1449227 81.01220703 4.02807617 C81.81271484 3.97006836 82.61322266 3.91206055 83.43798828 3.85229492 C85.77049313 3.54911913 85.77049313 3.54911913 87.08984375 1.83569336 C89.99948073 -0.86655367 93.72364682 -0.13023651 97.51220703 -0.09692383 C98.30691406 -0.1169043 99.10162109 -0.13688477 99.92041016 -0.1574707 C105.29762965 -0.15302304 108.50305177 0.68376631 112.69970703 4.34057617 C114.92036081 7.73212227 114.94275672 10.57815284 114.92675781 14.57788086 C114.92653122 16.46938873 114.92653122 16.46938873 114.92630005 18.39910889 C114.91608759 19.7702246 114.90565561 21.14133868 114.89501953 22.51245117 C114.8912876 23.91920775 114.88844148 25.32596694 114.88644409 26.73272705 C114.87882179 30.42843856 114.85918548 34.12399192 114.83703613 37.81964111 C114.81654739 41.59352479 114.80743591 45.36743411 114.79736328 49.14135742 C114.77593815 56.54116896 114.74181929 63.94085038 114.69970703 71.34057617 C115.57941162 71.32462402 116.45911621 71.30867188 117.36547852 71.29223633 C119.10680054 71.27362549 119.10680054 71.27362549 120.88330078 71.25463867 C122.03113037 71.23868652 123.17895996 71.22273438 124.36157227 71.20629883 C130.41933741 71.44997402 135.37581346 73.61341465 140.69970703 76.34057617 C141.21533203 75.70120117 141.73095703 75.06182617 142.26220703 74.40307617 C145.47253589 71.68664406 147.52190423 71.41260725 151.69970703 71.34057617 C155.40210753 72.55097634 157.15808347 73.54097552 159.34814453 76.77416992 C161.21140317 81.69080327 161.13692074 86.12844995 161.07470703 91.34057617 C161.08630859 92.3125293 161.09791016 93.28448242 161.10986328 94.28588867 C161.08339739 100.76121057 160.47978426 105.56049894 155.69970703 110.34057617 C156.00263672 110.85700684 156.30556641 111.3734375 156.61767578 111.90551758 C165.32423422 127.5873688 166.7189144 141.94277266 166.69970703 159.59057617 C166.70760254 160.62514954 166.71549805 161.6597229 166.72363281 162.72564697 C166.73450189 165.70867677 166.69653717 168.68631595 166.63720703 171.66870117 C166.63599854 173.02047958 166.63599854 173.02047958 166.63476562 174.39956665 C166.60334473 175.24022675 166.57192383 176.08088684 166.53955078 176.94702148 C166.5227124 177.67769836 166.50587402 178.40837524 166.48852539 179.16119385 C165.24161865 182.60620304 162.78969345 184.5560202 159.69970703 186.34057617 C156.65252136 187.04364545 153.70082152 187.01253265 150.58384705 186.96876526 C149.6756997 186.97585965 148.76755236 186.98295403 147.8318854 186.9902634 C144.79382235 187.00784254 141.75703877 186.98973878 138.71899414 186.97167969 C136.53905149 186.97681848 134.35911299 186.98409946 132.17918396 186.99336243 C126.2618806 187.01188835 120.34502739 186.99893041 114.42774272 186.97927213 C108.237432 186.96289646 102.04715003 186.97169693 95.85682678 186.97679138 C85.46217653 186.98131319 75.06770618 186.96543607 64.6730957 186.9375 C52.65101259 186.90543939 40.62931096 186.90546687 28.60719866 186.92271477 C17.04638022 186.93857067 5.48568084 186.93185283 -6.07513237 186.91477776 C-10.99730022 186.9079005 -15.91937285 186.90894665 -20.84153938 186.91632271 C-26.63563534 186.92397593 -32.42936152 186.91189049 -38.22339439 186.8844738 C-40.35147631 186.87757916 -42.47959269 186.8775035 -44.60767365 186.88468933 C-47.50933589 186.89335931 -50.40985049 186.87746929 -53.31141663 186.85523987 C-54.15655022 186.86348064 -55.00168382 186.8717214 -55.87242752 186.88021189 C-59.88062199 186.82340962 -61.83457423 186.63671252 -65.29959774 184.43340969 C-68.58522224 180.99647188 -68.41239582 178.87824436 -68.36279297 174.21557617 C-68.35376953 173.11987305 -68.34474609 172.02416992 -68.33544922 170.89526367 C-68.32384766 170.0522168 -68.31224609 169.20916992 -68.30029297 168.34057617 C-67.31029297 168.01057617 -66.32029297 167.68057617 -65.30029297 167.34057617 C-65.30029297 164.04057617 -65.30029297 160.74057617 -65.30029297 157.34057617 C-66.29029297 157.01057617 -67.28029297 156.68057617 -68.30029297 156.34057617 C-70.04603268 139.15473854 -65.22485555 125.9503082 -58.30029297 110.34057617 C-59.22841797 109.82495117 -60.15654297 109.30932617 -61.11279297 108.77807617 C-63.9926479 106.90488518 -64.27527286 106.41298535 -65.47998047 102.92651367 C-66.83573663 99.20860548 -68.86501707 98.1981301 -72.37060547 96.50463867 C-74.37858615 95.63424915 -76.39740691 94.78852361 -78.42529297 93.96557617 C-80.44920624 93.10471469 -82.4726693 92.24279373 -84.49560547 91.37963867 C-85.3929541 91.0104834 -86.29030273 90.64132813 -87.21484375 90.26098633 C-89.30029297 89.34057617 -89.30029297 89.34057617 -90.30029297 88.34057617 C-90.34122234 86.00760184 -90.3427102 83.67352393 -90.30029297 81.34057617 C-87.31278033 79.77077408 -85.89338115 79.18338231 -82.57373047 80.06323242 C-81.61724609 80.50538086 -80.66076172 80.9475293 -79.67529297 81.40307617 C-78.63630859 81.87229492 -77.59732422 82.34151367 -76.52685547 82.82495117 C-74.92970703 83.57518555 -74.92970703 83.57518555 -73.30029297 84.34057617 C-71.21724285 85.27870528 -69.13392842 86.21624783 -67.05029297 87.15307617 C-65.46606591 87.88029904 -63.88237843 88.60870593 -62.30029297 89.34057617 C-62.35830078 88.61612305 -62.41630859 87.89166992 -62.47607422 87.14526367 C-62.89103565 78.25323308 -62.89103565 78.25323308 -60.23779297 74.71557617 C-56.70140265 71.85636698 -54.83252056 71.26106341 -50.30029297 71.34057617 C-47.05029297 72.71557617 -47.05029297 72.71557617 -44.30029297 74.34057617 C-41.27186834 75.73593689 -41.27186834 75.73593689 -38.42529297 73.96557617 C-37.39404297 73.42932617 -36.36279297 72.89307617 -35.30029297 72.34057617 C-31.33010263 71.29506994 -27.58116532 71.23672898 -23.48779297 71.27807617 C-22.32634766 71.28709961 -21.16490234 71.29612305 -19.96826172 71.30541992 C-19.08783203 71.31702148 -18.20740234 71.32862305 -17.30029297 71.34057617 C-17.31028572 70.19545059 -17.31028572 70.19545059 -17.32048035 69.02719116 C-17.38069459 61.81816885 -17.42631953 54.60926919 -17.45572948 47.40006065 C-17.47135797 43.69408783 -17.49254416 39.98832353 -17.52661133 36.2824707 C-17.55930616 32.70333442 -17.57716716 29.1243982 -17.5849247 25.54512405 C-17.59045013 24.1824186 -17.60124 22.81972358 -17.61748314 21.45710373 C-17.63938933 19.54255686 -17.6405195 17.62780692 -17.64086914 15.71313477 C-17.65086189 14.08098526 -17.65086189 14.08098526 -17.66105652 12.41586304 C-17.2265854 8.71226456 -16.36668608 6.44980169 -14.30029297 3.34057617 C-9.71231716 0.1537459 -5.4218968 -0.07750374 0 0 Z " fill="#645A62" transform="translate(90.30029296875,34.659423828125)"/>
<path d="M0 0 C2.3125 -0.3984375 2.3125 -0.3984375 5 -0.375 C6.3303125 -0.38660156 6.3303125 -0.38660156 7.6875 -0.3984375 C8.8321875 -0.20121094 8.8321875 -0.20121094 10 0 C10.99 1.485 10.99 1.485 12 3 C14.72523905 3.33184484 17.26906573 3.51236921 20 3.5625 C27.74529991 3.74529991 27.74529991 3.74529991 30 6 C30.24050903 8.5942688 30.24050903 8.5942688 30.22705078 11.91845703 C30.22689972 13.15959259 30.22674866 14.40072815 30.22659302 15.67947388 C30.216379 17.0389217 30.205947 18.3983679 30.1953125 19.7578125 C30.19158284 21.14500729 30.18873565 22.53220471 30.18673706 23.91940308 C30.17909684 27.57240051 30.15944516 31.22523917 30.1373291 34.87817383 C30.11687896 38.60495862 30.10773713 42.33176904 30.09765625 46.05859375 C30.07619951 53.37246825 30.04205903 60.68621189 30 68 C28.28103516 68.05607422 28.28103516 68.05607422 26.52734375 68.11328125 C24.99736554 68.17898584 23.46741903 68.24543159 21.9375 68.3125 C21.18533203 68.33505859 20.43316406 68.35761719 19.65820312 68.38085938 C10.5513875 68.81451726 3.65374548 73.16401862 -4.3046875 77.37890625 C-13.09710009 81.50109105 -21.94677838 81.22433589 -31.5 81.0625 C-34.03119558 81.02826038 -36.56245048 80.99807628 -39.09375 80.97265625 C-40.20427734 80.95468994 -41.31480469 80.93672363 -42.45898438 80.91821289 C-44.93596362 80.70796593 -44.93596362 80.70796593 -46 82 C-53.41176471 81.29411765 -53.41176471 81.29411765 -56 80 C-56.30035156 79.22140625 -56.60070312 78.4428125 -56.91015625 77.640625 C-58.44795382 73.91463518 -60.3499243 72.42799339 -63.72460938 70.32421875 C-68.12026192 68.54708552 -72.14771759 68.46291869 -76.84765625 68.328125 C-77.72877075 68.29283691 -78.60988525 68.25754883 -79.5177002 68.22119141 C-81.67805594 68.13627061 -83.83900196 68.06660291 -86 68 C-86.04628835 59.95076017 -86.08185126 51.90157571 -86.10362434 43.85223579 C-86.11407298 40.1148217 -86.1282517 36.3774985 -86.15087891 32.64013672 C-86.17256904 29.035095 -86.18456049 25.43014083 -86.18975449 21.82503891 C-86.19345716 20.44788102 -86.20068734 19.07072806 -86.21146011 17.69360733 C-86.22592335 15.76860455 -86.22681648 13.84351413 -86.22705078 11.91845703 C-86.231492 10.82147491 -86.23593323 9.7244928 -86.24050903 8.5942688 C-86 6 -86 6 -84 4 C-81.39150478 3.79828778 -78.88730476 3.71995113 -76.27734375 3.72875977 C-75.4804715 3.72353302 -74.68359924 3.71830627 -73.86257935 3.71292114 C-72.1296079 3.70266694 -70.39660553 3.69689827 -68.66360474 3.69503975 C-65.92394499 3.69138818 -63.1846512 3.67469616 -60.44506836 3.65428162 C-52.6551797 3.59874525 -44.86523698 3.56813648 -37.07519531 3.54370117 C-32.3135995 3.52786244 -27.55226357 3.49768353 -22.790802 3.45893669 C-20.9726944 3.44725462 -19.15454039 3.44135606 -17.33639526 3.44125557 C-14.79820472 3.44106439 -12.2607353 3.42286345 -9.72265625 3.40063477 C-8.58801437 3.40750053 -8.58801437 3.40750053 -7.43045044 3.414505 C-5.12590311 3.41735794 -5.12590311 3.41735794 -2 3 C-1.34 2.01 -0.68 1.02 0 0 Z " fill="#EBDCD7" transform="translate(167,39)"/>
<path d="M0 0 C0.79470703 -0.01998047 1.58941406 -0.03996094 2.40820312 -0.06054688 C7.78542262 -0.05609922 10.99084474 0.78069013 15.1875 4.4375 C17.40815377 7.8290461 17.43054969 10.67507667 17.41455078 14.67480469 C17.41432419 16.56631256 17.41432419 16.56631256 17.41409302 18.49603271 C17.40388056 19.86714842 17.39344858 21.23826251 17.3828125 22.609375 C17.37908057 24.01613158 17.37623445 25.42289077 17.37423706 26.82965088 C17.36661476 30.52536239 17.34697845 34.22091575 17.3248291 37.91656494 C17.30434036 41.69044862 17.29522888 45.46435794 17.28515625 49.23828125 C17.26373112 56.63809279 17.22961226 64.0377742 17.1875 71.4375 C18.06720459 71.42154785 18.94690918 71.4055957 19.85327148 71.38916016 C21.59459351 71.37054932 21.59459351 71.37054932 23.37109375 71.3515625 C24.51892334 71.33561035 25.66675293 71.3196582 26.84936523 71.30322266 C32.90713038 71.54689784 37.86360643 73.71033848 43.1875 76.4375 C43.703125 75.798125 44.21875 75.15875 44.75 74.5 C47.96032886 71.78356789 50.0096972 71.50953108 54.1875 71.4375 C57.8899005 72.64790016 59.64587644 73.63789935 61.8359375 76.87109375 C63.69919614 81.7877271 63.62471371 86.22537378 63.5625 91.4375 C63.57410156 92.40945312 63.58570313 93.38140625 63.59765625 94.3828125 C63.57119036 100.8581344 62.96757723 105.65742277 58.1875 110.4375 C58.49042969 110.95393066 58.79335937 111.47036133 59.10546875 112.00244141 C67.81202719 127.68429263 69.20670737 142.03969649 69.1875 159.6875 C69.19539551 160.72207336 69.20329102 161.75664673 69.21142578 162.8225708 C69.22229486 165.8056006 69.18433014 168.78323978 69.125 171.765625 C69.12419434 172.66681061 69.12338867 173.56799622 69.12255859 174.49649048 C69.0911377 175.33715057 69.0597168 176.17781067 69.02734375 177.04394531 C69.01050537 177.77462219 68.99366699 178.50529907 68.97631836 179.25811768 C67.72941162 182.70312687 65.27748642 184.65294403 62.1875 186.4375 C59.14031433 187.14056928 56.18861449 187.10945648 53.07164001 187.06568909 C52.16349267 187.07278347 51.25534533 187.07987786 50.31967837 187.08718723 C47.28161532 187.10476637 44.24483174 187.08666261 41.20678711 187.06860352 C39.02684446 187.07374231 36.84690596 187.08102328 34.66697693 187.09028625 C28.74967357 187.10881218 22.83282036 187.09585424 16.91553569 187.07619596 C10.72522497 187.05982028 4.534943 187.06862076 -1.65538025 187.07371521 C-12.0500305 187.07823702 -22.44450085 187.0623599 -32.83911133 187.03442383 C-44.86119444 187.00236322 -56.88289607 187.0023907 -68.90500838 187.0196386 C-80.46582681 187.0354945 -92.02652619 187.02877665 -103.5873394 187.01170158 C-108.50950726 187.00482432 -113.43157988 187.00587048 -118.35374641 187.01324654 C-124.14784237 187.02089976 -129.94156855 187.00881432 -135.73560143 186.98139763 C-137.86368334 186.97450298 -139.99179972 186.97442733 -142.11988068 186.98161316 C-145.02154292 186.99028314 -147.92205752 186.97439312 -150.82362366 186.9521637 C-151.66875725 186.96040446 -152.51389085 186.96864523 -153.38463455 186.97713572 C-157.39282902 186.92033345 -159.34678126 186.73363635 -162.81180477 184.53033352 C-166.09742927 181.09339571 -165.92460285 178.97516819 -165.875 174.3125 C-165.86597656 173.21679688 -165.85695312 172.12109375 -165.84765625 170.9921875 C-165.83605469 170.14914063 -165.82445312 169.30609375 -165.8125 168.4375 C-163.8325 167.4475 -163.8325 167.4475 -161.8125 166.4375 C-159.8125 167.375 -159.8125 167.375 -157.8125 169.4375 C-157.8125 172.4075 -157.8125 175.3775 -157.8125 178.4375 C-85.8725 178.4375 -13.9325 178.4375 60.1875 178.4375 C59.73519136 141.52245565 59.73519136 141.52245565 48.9375 109.125 C47.9666186 106.84305416 47.00177442 104.55853033 46.04296875 102.27148438 C41.75826648 90.14803686 41.75826648 90.14803686 33.1875 81.4375 C30.1540951 80.87801411 27.19627952 80.82922795 24.1171875 80.8359375 C23.24031281 80.82736725 22.36343811 80.818797 21.45999146 80.80996704 C19.60584962 80.79850228 17.75161786 80.797464 15.89746094 80.80615234 C13.09148936 80.81243509 10.28981938 80.76568132 7.484375 80.71484375 C-3.00003918 80.64136224 -9.90835254 81.51045259 -18.8125 87.4375 C-21.55049013 88.59008728 -24.33163943 89.44093413 -27.1875 90.25 C-27.85910156 90.45302734 -28.53070313 90.65605469 -29.22265625 90.86523438 C-35.63348881 92.7733702 -41.37556134 93.63161636 -48.0625 93.625 C-49.19268555 93.62487915 -49.19268555 93.62487915 -50.34570312 93.62475586 C-63.76271351 93.48728649 -63.76271351 93.48728649 -66.8125 90.4375 C-66.9375 87.9375 -66.9375 87.9375 -66.8125 85.4375 C-65.8125 84.4375 -65.8125 84.4375 -63.30322266 84.37158203 C-62.2054248 84.39591309 -61.10762695 84.42024414 -59.9765625 84.4453125 C-58.76613281 84.46207031 -57.55570312 84.47882813 -56.30859375 84.49609375 C-53.76676747 84.53969723 -51.22506622 84.59151767 -48.68359375 84.65234375 C-37.80853228 84.7783982 -29.03204204 82.95769218 -19.4375 77.875 C-12.09796018 74.02298418 -7.25297787 72.13263627 1 72.3125 C1.78826172 72.32152344 2.57652344 72.33054687 3.38867188 72.33984375 C5.32174666 72.36327496 7.2546638 72.39914162 9.1875 72.4375 C9.08014792 64.37088522 8.96754548 56.30436844 8.84816074 48.23792362 C8.79289769 44.49271202 8.73947245 40.74749266 8.69018555 37.00219727 C8.64259165 33.39061414 8.59025094 29.77912868 8.53455925 26.16766167 C8.51411306 24.78692481 8.49540378 23.40616114 8.47842598 22.02537727 C8.4544322 20.09766686 8.42379736 18.17004251 8.39282227 16.24243164 C8.37727798 15.14322891 8.3617337 14.04402618 8.34571838 12.91151428 C8.46461808 10.49443927 8.46461808 10.49443927 7.1875 9.4375 C3.82033208 9.30190935 0.45978362 9.18951632 -2.91015625 9.18359375 C-5.0546875 9.109375 -5.0546875 9.109375 -8.8125 8.4375 C-10.8203125 5.890625 -10.8203125 5.890625 -11.8125 3.4375 C-8.36271484 -0.63142549 -5.03326836 -0.04425736 0 0 Z " fill="#010101" transform="translate(187.8125,34.5625)"/>
<path d="M0 0 C1.2108149 -0.005476 1.2108149 -0.005476 2.4460907 -0.01106262 C5.09871837 -0.01913102 7.75072826 -0.00559393 10.40332031 0.0090332 C12.25083414 0.00955205 14.09834853 0.00903339 15.94586182 0.00752258 C19.80920703 0.00761213 23.67234278 0.01800887 27.53564453 0.03613281 C32.49468079 0.05888303 37.45341288 0.05935072 42.41248703 0.05261517 C46.22309081 0.04928007 50.03362483 0.05589552 53.84421539 0.0657444 C55.67351161 0.06959986 57.50281558 0.07074319 59.33211517 0.06915855 C61.8817181 0.06878909 64.43092512 0.08137216 66.98046875 0.09765625 C67.73996323 0.09517883 68.4994577 0.09270142 69.28196716 0.09014893 C74.50269547 0.14356461 74.50269547 0.14356461 76.73144531 2.37231445 C76.17588976 6.92787001 76.17588976 6.92787001 74.73144531 8.37231445 C72.18161277 8.49203079 69.65763101 8.54775063 67.10644531 8.56176758 C65.90894653 8.57420753 65.90894653 8.57420753 64.68725586 8.5868988 C62.94826268 8.60433752 61.2092455 8.61949377 59.47021484 8.63267517 C56.72259244 8.65363198 53.97509086 8.6806596 51.22753906 8.70935059 C44.40305534 8.7793308 37.57848591 8.83864181 30.75390625 8.89837646 C24.99132227 8.94921861 19.22880291 9.00401956 13.46630859 9.06419373 C10.75132133 9.09086917 8.03632841 9.11162286 5.32128906 9.13220215 C3.66633821 9.14879808 2.01139008 9.16566929 0.35644531 9.18286133 C-0.78594604 9.18913795 -0.78594604 9.18913795 -1.95141602 9.19554138 C-5.40049773 8.92886861 -5.40049773 8.92886861 -8.26855469 10.37231445 C-8.39212547 12.3045544 -8.44649927 14.24125244 -8.47387695 16.17724609 C-8.49382217 17.41845718 -8.5137674 18.65966827 -8.53431702 19.93849182 C-8.55130262 21.30315015 -8.56818138 22.66780982 -8.58496094 24.0324707 C-8.60552405 25.4211032 -8.62652034 26.80972935 -8.64793396 28.198349 C-8.70322115 31.85945504 -8.75260094 35.52061818 -8.80078125 39.18182373 C-8.8509479 42.91529442 -8.90665914 46.64868184 -8.96191406 50.38208008 C-9.06957687 57.71208775 -9.17100362 65.0421645 -9.26855469 72.37231445 C-7.96805176 72.33533447 -6.66754883 72.29835449 -5.32763672 72.26025391 C-3.60222819 72.2303437 -1.87680381 72.20133875 -0.15136719 72.1730957 C0.70352295 72.14638794 1.55841309 72.11968018 2.43920898 72.09216309 C8.90440389 72.01286416 12.95831986 73.25836189 18.11425781 77.3527832 C20.00570018 79.71480181 20.47972738 81.376871 20.73144531 84.37231445 C20.40144531 84.70231445 20.07144531 85.03231445 19.73144531 85.37231445 C13.28750219 84.88597912 13.28750219 84.88597912 11.08862305 82.85473633 C7.37390525 80.51856166 3.63205024 80.90454668 -0.67089844 80.90356445 C-1.58561417 80.89595093 -2.5003299 80.8883374 -3.44276428 80.88049316 C-5.3751452 80.86969952 -7.30758442 80.86683607 -9.23999023 80.87133789 C-12.19256109 80.87231001 -15.14253101 80.83068573 -18.09472656 80.78637695 C-19.97427844 80.78116958 -21.85383934 80.77848177 -23.73339844 80.77856445 C-24.61374252 80.76216919 -25.49408661 80.74577393 -26.40110779 80.72888184 C-30.6714698 80.77689817 -32.6724952 80.93188304 -36.18969727 83.53076172 C-38.32319381 86.44699969 -39.72530827 89.07880204 -41.06542969 92.4309082 C-41.54520264 93.61064209 -42.02497559 94.79037598 -42.51928711 96.00585938 C-43.0198118 97.27354111 -43.51955061 98.54153338 -44.01855469 99.80981445 C-44.80532312 101.77982845 -45.59486108 103.74871871 -46.38444519 105.71760559 C-46.91415528 107.0399931 -47.44215983 108.36306506 -47.96846008 109.68681335 C-49.56296248 113.68196282 -51.24405907 117.62281088 -53.01464844 121.54418945 C-57.64292506 131.91487417 -60.3133526 140.58864803 -60.17089844 152.01293945 C-60.26855469 155.37231445 -60.26855469 155.37231445 -62.26855469 157.37231445 C-64.83105469 157.55981445 -64.83105469 157.55981445 -67.26855469 157.37231445 C-69.74676798 154.89410116 -68.9371195 148.70742759 -69.02050781 145.30493164 C-68.78535613 132.8723749 -63.23484745 121.56760634 -58.26855469 110.37231445 C-59.19667969 109.85668945 -60.12480469 109.34106445 -61.08105469 108.80981445 C-63.96090962 106.93662347 -64.24353458 106.44472363 -65.44824219 102.95825195 C-66.80399835 99.24034376 -68.83327879 98.22986838 -72.33886719 96.53637695 C-74.34684787 95.66598743 -76.36566863 94.82026189 -78.39355469 93.99731445 C-80.41746796 93.13645298 -82.44093102 92.27453202 -84.46386719 91.41137695 C-85.36121582 91.04222168 -86.25856445 90.67306641 -87.18310547 90.29272461 C-89.26855469 89.37231445 -89.26855469 89.37231445 -90.26855469 88.37231445 C-90.30948406 86.03934012 -90.31097192 83.70526221 -90.26855469 81.37231445 C-87.28104205 79.80251236 -85.86164287 79.21512059 -82.54199219 80.0949707 C-81.58550781 80.53711914 -80.62902344 80.97926758 -79.64355469 81.43481445 C-78.60457031 81.9040332 -77.56558594 82.37325195 -76.49511719 82.85668945 C-74.89796875 83.60692383 -74.89796875 83.60692383 -73.26855469 84.37231445 C-71.18550457 85.31044356 -69.10219014 86.24798611 -67.01855469 87.18481445 C-65.43432763 87.91203733 -63.85064015 88.64044421 -62.26855469 89.37231445 C-62.3265625 88.64786133 -62.38457031 87.9234082 -62.44433594 87.17700195 C-62.85929737 78.28497136 -62.85929737 78.28497136 -60.20605469 74.74731445 C-56.66966437 71.88810526 -54.80078228 71.29280169 -50.26855469 71.37231445 C-47.01855469 72.74731445 -47.01855469 72.74731445 -44.26855469 74.37231445 C-41.24013006 75.76767517 -41.24013006 75.76767517 -38.39355469 73.99731445 C-37.36230469 73.46106445 -36.33105469 72.92481445 -35.26855469 72.37231445 C-31.29836435 71.32680822 -27.54942704 71.26846726 -23.45605469 71.30981445 C-22.29460937 71.31883789 -21.13316406 71.32786133 -19.93652344 71.3371582 C-19.05609375 71.34875977 -18.17566406 71.36036133 -17.26855469 71.37231445 C-17.27854744 70.22718887 -17.27854744 70.22718887 -17.28874207 69.05892944 C-17.34895631 61.84990713 -17.39458125 54.64100747 -17.4239912 47.43179893 C-17.43961969 43.72582611 -17.46080588 40.02006182 -17.49487305 36.31420898 C-17.52756788 32.7350727 -17.54542888 29.15613648 -17.55318642 25.57686234 C-17.55871185 24.21415688 -17.56950172 22.85146186 -17.58574486 21.48884201 C-17.60765105 19.57429514 -17.60878121 17.65954521 -17.60913086 15.74487305 C-17.61912361 14.11272354 -17.61912361 14.11272354 -17.62931824 12.44760132 C-17.19484712 8.74400284 -16.3349478 6.48153997 -14.26855469 3.37231445 C-9.69329351 0.20007447 -5.40690813 -0.05500282 0 0 Z " fill="#020102" transform="translate(90.2685546875,34.627685546875)"/>
<path d="M0 0 C2.45862401 -0.05383848 4.9160755 -0.09359038 7.375 -0.125 C8.42300781 -0.15013672 8.42300781 -0.15013672 9.4921875 -0.17578125 C11.32897486 -0.19344267 13.16601963 -0.10303261 15 0 C17 2 17 2 17.24050903 4.5942688 C17.2338472 6.23974197 17.2338472 6.23974197 17.22705078 7.91845703 C17.22689972 9.15959259 17.22674866 10.40072815 17.22659302 11.67947388 C17.216379 13.0389217 17.205947 14.3983679 17.1953125 15.7578125 C17.19158284 17.14500729 17.18873565 18.53220471 17.18673706 19.91940308 C17.17909684 23.57240051 17.15944516 27.22523917 17.1373291 30.87817383 C17.11687896 34.60495862 17.10773713 38.33176904 17.09765625 42.05859375 C17.07619948 49.37247663 17.04101434 56.68619585 17 64 C12.05 64 7.1 64 2 64 C1.97494385 62.13230957 1.9498877 60.26461914 1.92407227 58.34033203 C1.84026195 52.17757208 1.75199239 46.0148887 1.66066074 39.85223579 C1.60543681 36.11489964 1.55201768 32.37755565 1.50268555 28.64013672 C1.45503413 25.03503385 1.40269108 21.43002715 1.34705925 17.82503891 C1.32663921 16.44791933 1.30792553 15.07077338 1.29092598 13.69360733 C1.26687453 11.768496 1.23625749 9.84347005 1.20532227 7.91845703 C1.18977798 6.82147491 1.1742337 5.7244928 1.15821838 4.5942688 C1.17103805 2.01546248 1.17103805 2.01546248 0 0 Z " fill="#DACCC7" transform="translate(180,43)"/>
<path d="M0 0 C1.07804649 -0.00503792 1.07804649 -0.00503792 2.1778717 -0.01017761 C4.56529445 -0.01971471 6.95264726 -0.0216321 9.34008789 -0.02270508 C10.992966 -0.02591576 12.64584382 -0.02927968 14.29872131 -0.03279114 C17.76816466 -0.03878933 21.23758308 -0.04063033 24.70703125 -0.04003906 C29.16061581 -0.0399374 33.61404107 -0.05359035 38.06758785 -0.07081127 C41.48271932 -0.08191029 44.89781201 -0.08395892 48.31295967 -0.08342934 C49.95526237 -0.0846126 51.59756596 -0.08905364 53.239851 -0.0967617 C55.53371321 -0.10651946 57.82722635 -0.10370046 60.12109375 -0.09765625 C61.42823837 -0.09908127 62.735383 -0.10050629 64.08213806 -0.10197449 C67.12524414 0.14526367 67.12524414 0.14526367 69.12524414 2.14526367 C68.56968859 6.70081923 68.56968859 6.70081923 67.12524414 8.14526367 C64.8355531 8.25025272 62.54257532 8.28383926 60.25048828 8.29052734 C59.17244179 8.29556526 59.17244179 8.29556526 58.07261658 8.30070496 C55.68519384 8.31024206 53.29784102 8.31215944 50.91040039 8.31323242 C49.25752228 8.3164431 47.60464446 8.31980703 45.95176697 8.32331848 C42.48232362 8.32931667 39.0129052 8.33115768 35.54345703 8.33056641 C31.08987247 8.33046475 26.63644721 8.34411769 22.18290043 8.36133862 C18.76776897 8.37243764 15.35267627 8.37448626 11.93752861 8.37395668 C10.29522591 8.37513994 8.65292232 8.37958099 7.01063728 8.38728905 C4.71677507 8.3970468 2.42326193 8.39422781 0.12939453 8.38818359 C-1.8313224 8.39032112 -1.8313224 8.39032112 -3.83164978 8.39250183 C-6.87475586 8.14526367 -6.87475586 8.14526367 -8.87475586 6.14526367 C-8.06316596 -0.50977351 -6.39993072 0.01867437 0 0 Z " fill="#0C0B0B" transform="translate(108.874755859375,76.854736328125)"/>
<path d="M0 0 C0.83491974 -0.00570007 1.66983948 -0.01140015 2.53005981 -0.01727295 C4.30046312 -0.02673758 6.07088417 -0.03326272 7.84130859 -0.03710938 C10.55207048 -0.04680972 13.2620727 -0.07781645 15.97265625 -0.109375 C17.69009965 -0.11590528 19.40754849 -0.12115565 21.125 -0.125 C21.9375827 -0.1373468 22.75016541 -0.1496936 23.58737183 -0.16241455 C29.26227492 -0.13992654 29.26227492 -0.13992654 31.44924927 1.59259033 C32.6953125 3.203125 32.6953125 3.203125 32.4453125 5.328125 C31.6953125 7.203125 31.6953125 7.203125 30.6953125 8.203125 C27.83437033 8.31661661 24.99847794 8.36730992 22.13671875 8.37109375 C21.27723129 8.37442215 20.41774384 8.37775055 19.5322113 8.38117981 C17.71052589 8.3862527 15.88883114 8.38858802 14.06713867 8.38842773 C11.2731196 8.39061303 8.47949593 8.40876144 5.68554688 8.42773438 C3.91927219 8.4306684 2.15299562 8.43265314 0.38671875 8.43359375 C-0.45289902 8.44077927 -1.29251678 8.44796478 -2.15757751 8.45536804 C-8.07586569 8.43194681 -8.07586569 8.43194681 -10.3046875 6.203125 C-9.4270407 -0.99357878 -6.45409986 0.03358816 0 0 Z " fill="#0E0D0D" transform="translate(110.3046875,59.796875)"/>
<path d="M0 0 C1.97806641 -0.04253906 1.97806641 -0.04253906 3.99609375 -0.0859375 C7.5625 0.375 7.5625 0.375 10.0390625 2.203125 C11.5625 4.375 11.5625 4.375 11.5 7.5 C10.5625 10.375 10.5625 10.375 7.5625 12.375 C4.84675383 12.62240908 2.27754891 12.74516895 -0.4375 12.75 C-1.16195312 12.77449219 -1.88640625 12.79898438 -2.6328125 12.82421875 C-7.91203436 12.85343954 -7.91203436 12.85343954 -10.4453125 10.546875 C-11.85552743 7.45994784 -11.41123474 5.57441415 -10.4375 2.375 C-6.84522276 -0.0198515 -4.1551193 0.00796763 0 0 Z " fill="#040404" transform="translate(188.4375,164.625)"/>
<path d="M0 0 C1.97806641 -0.04253906 1.97806641 -0.04253906 3.99609375 -0.0859375 C7.5625 0.375 7.5625 0.375 10.0390625 2.203125 C11.5625 4.375 11.5625 4.375 11.5 7.5 C10.5625 10.375 10.5625 10.375 7.5625 12.375 C4.84675383 12.62240908 2.27754891 12.74516895 -0.4375 12.75 C-1.16195312 12.77449219 -1.88640625 12.79898438 -2.6328125 12.82421875 C-7.91203436 12.85343954 -7.91203436 12.85343954 -10.4453125 10.546875 C-11.85552743 7.45994784 -11.41123474 5.57441415 -10.4375 2.375 C-6.84522276 -0.0198515 -4.1551193 0.00796763 0 0 Z " fill="#040404" transform="translate(155.4375,164.625)"/>
<path d="M0 0 C1.97806641 -0.04253906 1.97806641 -0.04253906 3.99609375 -0.0859375 C7.5625 0.375 7.5625 0.375 10.0390625 2.203125 C11.5625 4.375 11.5625 4.375 11.5 7.5 C10.5625 10.375 10.5625 10.375 7.5625 12.375 C4.84675383 12.62240908 2.27754891 12.74516895 -0.4375 12.75 C-1.16195312 12.77449219 -1.88640625 12.79898438 -2.6328125 12.82421875 C-7.91203436 12.85343954 -7.91203436 12.85343954 -10.4453125 10.546875 C-11.85552743 7.45994784 -11.41123474 5.57441415 -10.4375 2.375 C-6.84522276 -0.0198515 -4.1551193 0.00796763 0 0 Z " fill="#040404" transform="translate(122.4375,164.625)"/>
<path d="M0 0 C1.97806641 -0.04253906 1.97806641 -0.04253906 3.99609375 -0.0859375 C7.5625 0.375 7.5625 0.375 10.04296875 2.203125 C11.5625 4.375 11.5625 4.375 11.4375 7.5 C10.5625 10.375 10.5625 10.375 8.5625 12.375 C5.68907939 12.57356972 2.93388012 12.65328946 0.0625 12.625 C-1.11505859 12.63660156 -1.11505859 12.63660156 -2.31640625 12.6484375 C-8.18419213 12.62830787 -8.18419213 12.62830787 -10.4375 10.375 C-10.73828125 8.5 -10.73828125 8.5 -10.75 6.375 C-10.76675781 5.67375 -10.78351562 4.9725 -10.80078125 4.25 C-10.68089844 3.63125 -10.56101563 3.0125 -10.4375 2.375 C-6.84522276 -0.0198515 -4.1551193 0.00796763 0 0 Z " fill="#040303" transform="translate(56.4375,164.625)"/>
<path d="M0 0 C1.97806641 -0.04253906 1.97806641 -0.04253906 3.99609375 -0.0859375 C7.5625 0.375 7.5625 0.375 10.0390625 2.203125 C11.5625 4.375 11.5625 4.375 11.5 7.5 C10.5625 10.375 10.5625 10.375 7.5625 12.375 C4.83187763 12.56983979 2.22725836 12.65393643 -0.5 12.625 C-1.23283203 12.63273438 -1.96566406 12.64046875 -2.72070312 12.6484375 C-8.18413018 12.62836982 -8.18413018 12.62836982 -10.4375 10.375 C-10.73828125 8.5 -10.73828125 8.5 -10.75 6.375 C-10.76675781 5.67375 -10.78351563 4.9725 -10.80078125 4.25 C-10.68089844 3.63125 -10.56101563 3.0125 -10.4375 2.375 C-6.84522276 -0.0198515 -4.1551193 0.00796763 0 0 Z " fill="#030303" transform="translate(221.4375,164.625)"/>
<path d="M0 0 C1.97806641 -0.04253906 1.97806641 -0.04253906 3.99609375 -0.0859375 C7.5625 0.375 7.5625 0.375 10.0390625 2.203125 C11.5625 4.375 11.5625 4.375 11.5 7.5 C10.5625 10.375 10.5625 10.375 7.5625 12.375 C4.83187763 12.56983979 2.22725836 12.65393643 -0.5 12.625 C-1.23283203 12.63273438 -1.96566406 12.64046875 -2.72070312 12.6484375 C-8.18413018 12.62836982 -8.18413018 12.62836982 -10.4375 10.375 C-10.73828125 8.5 -10.73828125 8.5 -10.75 6.375 C-10.76675781 5.67375 -10.78351563 4.9725 -10.80078125 4.25 C-10.68089844 3.63125 -10.56101562 3.0125 -10.4375 2.375 C-6.84522276 -0.0198515 -4.1551193 0.00796763 0 0 Z " fill="#030303" transform="translate(89.4375,164.625)"/>
<path d="M0 0 C0.78503906 -0.01224609 1.57007813 -0.02449219 2.37890625 -0.03710938 C4.42063726 -0.04236254 6.46192251 0.0652982 8.5 0.1875 C10.5 2.1875 10.5 2.1875 10.75 5.125 C10.5 8.1875 10.5 8.1875 8.5 11.1875 C6.65234375 11.57568359 6.65234375 11.57568359 4.4375 11.5859375 C3.24253906 11.59173828 3.24253906 11.59173828 2.0234375 11.59765625 C1.19070312 11.58605469 0.35796875 11.57445312 -0.5 11.5625 C-1.33273438 11.57410156 -2.16546875 11.58570313 -3.0234375 11.59765625 C-3.82007813 11.59378906 -4.61671875 11.58992187 -5.4375 11.5859375 C-6.16839844 11.58255371 -6.89929688 11.57916992 -7.65234375 11.57568359 C-9.5 11.1875 -9.5 11.1875 -11.5 8.1875 C-11.25 4.5625 -11.25 4.5625 -10.5 1.1875 C-7.21646451 -0.45426774 -3.60480362 0.00295961 0 0 Z " fill="#010101" transform="translate(205.5,145.8125)"/>
<path d="M0 0 C0.78503906 -0.01224609 1.57007813 -0.02449219 2.37890625 -0.03710938 C4.42063726 -0.04236254 6.46192251 0.0652982 8.5 0.1875 C10.5 2.1875 10.5 2.1875 10.75 5.125 C10.5 8.1875 10.5 8.1875 8.5 11.1875 C6.65234375 11.57568359 6.65234375 11.57568359 4.4375 11.5859375 C3.24253906 11.59173828 3.24253906 11.59173828 2.0234375 11.59765625 C1.19070312 11.58605469 0.35796875 11.57445312 -0.5 11.5625 C-1.33273438 11.57410156 -2.16546875 11.58570313 -3.0234375 11.59765625 C-3.82007813 11.59378906 -4.61671875 11.58992187 -5.4375 11.5859375 C-6.16839844 11.58255371 -6.89929688 11.57916992 -7.65234375 11.57568359 C-9.5 11.1875 -9.5 11.1875 -11.5 8.1875 C-11.25 4.5625 -11.25 4.5625 -10.5 1.1875 C-7.21646451 -0.45426774 -3.60480362 0.00295961 0 0 Z " fill="#010101" transform="translate(172.5,145.8125)"/>
<path d="M0 0 C0.78503906 -0.01224609 1.57007813 -0.02449219 2.37890625 -0.03710938 C4.42063726 -0.04236254 6.46192251 0.0652982 8.5 0.1875 C10.5 2.1875 10.5 2.1875 10.75 5.125 C10.5 8.1875 10.5 8.1875 8.5 11.1875 C6.65234375 11.57568359 6.65234375 11.57568359 4.4375 11.5859375 C3.24253906 11.59173828 3.24253906 11.59173828 2.0234375 11.59765625 C1.19070312 11.58605469 0.35796875 11.57445312 -0.5 11.5625 C-1.33273438 11.57410156 -2.16546875 11.58570313 -3.0234375 11.59765625 C-3.82007813 11.59378906 -4.61671875 11.58992187 -5.4375 11.5859375 C-6.16839844 11.58255371 -6.89929688 11.57916992 -7.65234375 11.57568359 C-9.5 11.1875 -9.5 11.1875 -11.5 8.1875 C-11.25 4.5625 -11.25 4.5625 -10.5 1.1875 C-7.21646451 -0.45426774 -3.60480362 0.00295961 0 0 Z " fill="#010101" transform="translate(139.5,145.8125)"/>
<path d="M0 0 C0.78503906 -0.01224609 1.57007812 -0.02449219 2.37890625 -0.03710938 C4.42063726 -0.04236254 6.46192251 0.0652982 8.5 0.1875 C10.5 2.1875 10.5 2.1875 10.75 5.125 C10.5 8.1875 10.5 8.1875 8.5 11.1875 C6.65234375 11.57568359 6.65234375 11.57568359 4.4375 11.5859375 C3.24253906 11.59173828 3.24253906 11.59173828 2.0234375 11.59765625 C1.19070312 11.58605469 0.35796875 11.57445312 -0.5 11.5625 C-1.33273438 11.57410156 -2.16546875 11.58570313 -3.0234375 11.59765625 C-3.82007812 11.59378906 -4.61671875 11.58992187 -5.4375 11.5859375 C-6.16839844 11.58255371 -6.89929688 11.57916992 -7.65234375 11.57568359 C-9.5 11.1875 -9.5 11.1875 -11.5 8.1875 C-11.25 4.5625 -11.25 4.5625 -10.5 1.1875 C-7.21646451 -0.45426774 -3.60480362 0.00295961 0 0 Z " fill="#010101" transform="translate(106.5,145.8125)"/>
<path d="M0 0 C0.78503906 -0.01224609 1.57007812 -0.02449219 2.37890625 -0.03710938 C4.42063726 -0.04236254 6.46192251 0.0652982 8.5 0.1875 C10.5 2.1875 10.5 2.1875 10.75 5.6875 C10.5 9.1875 10.5 9.1875 8.5 11.1875 C5.64434641 11.41302341 2.9174649 11.51178763 0.0625 11.5 C-1.10249023 11.52416992 -1.10249023 11.52416992 -2.29101562 11.54882812 C-8.00322974 11.55374821 -8.00322974 11.55374821 -10.25805664 9.89135742 C-11.5 8.1875 -11.5 8.1875 -11.3125 4.5625 C-11.044375 3.44875 -10.77625 2.335 -10.5 1.1875 C-7.21646451 -0.45426774 -3.60480362 0.00295961 0 0 Z " fill="#010101" transform="translate(73.5,145.8125)"/>
<path d="M0 0 C1.32 0 2.64 0 4 0 C4 7.26 4 14.52 4 22 C0.50282974 16.75424461 -0.2430834 13.00496213 -0.125 6.6875 C-0.10695312 5.43324219 -0.08890625 4.17898437 -0.0703125 2.88671875 C-0.03550781 1.45779297 -0.03550781 1.45779297 0 0 Z " fill="#978997" transform="translate(238,115)"/>
<path d="M0 0 C2.475 0.495 2.475 0.495 5 1 C5.02694851 2.95825873 5.04637218 4.91662226 5.0625 6.875 C5.07410156 7.96554688 5.08570313 9.05609375 5.09765625 10.1796875 C5 13 5 13 4 15 C2.68 14.67 1.36 14.34 0 14 C0 9.38 0 4.76 0 0 Z " fill="#8A7D8A" transform="translate(36,115)"/>
</svg>
